<svg width="1920" height="1080" viewBox="0 0 1920 1080" fill="none" xmlns="http://www.w3.org/2000/svg">
<rect width="1920" height="1080" transform="translate(0 0)" fill="white"/>
<rect width="1920" height="1080" transform="translate(0 0)" fill="url(#paint0_linear_0_1)"/>
<g clip-path="url(#clip0_0_1)">
<rect width="499" height="1080" transform="translate(1061 40)" fill="white"/>
<rect x="1225.27" y="1103.86" width="171.469" height="6.3981" rx="3.19905" fill="#2E3033"/>
<rect x="1087.23" y="414.289" width="446.588" height="70.3792" rx="9.59716" stroke="#E5E8EB" stroke-width="1.27962"/>
<path d="M1127.18 457.555H1125.47V448.951H1123.32V456.693H1121.65V441.098H1123.32V447.489H1125.47V440.76H1127.18V457.555ZM1115.37 451.716C1117.18 451.698 1118.89 451.526 1120.52 451.201L1120.71 452.757C1119.63 452.95 1118.6 453.088 1117.62 453.169C1116.64 453.244 1115.66 453.281 1114.68 453.281H1113.59V442.747H1115.37V451.716ZM1147.99 457.593H1146.2V440.76H1147.99V457.593ZM1139.01 442.016C1139.84 442.016 1140.58 442.26 1141.24 442.747C1141.89 443.228 1142.41 443.915 1142.77 444.809C1143.15 445.696 1143.34 446.727 1143.34 447.902C1143.34 449.083 1143.15 450.12 1142.77 451.013C1142.41 451.907 1141.89 452.597 1141.24 453.085C1140.58 453.566 1139.84 453.806 1139.01 453.806C1138.16 453.806 1137.41 453.566 1136.76 453.085C1136.1 452.597 1135.59 451.91 1135.21 451.023C1134.84 450.129 1134.66 449.089 1134.66 447.902C1134.66 446.721 1134.84 445.687 1135.21 444.8C1135.59 443.906 1136.1 443.219 1136.76 442.738C1137.41 442.257 1138.16 442.016 1139.01 442.016ZM1139.01 443.609C1138.49 443.609 1138.03 443.784 1137.63 444.134C1137.24 444.484 1136.93 444.984 1136.71 445.634C1136.49 446.277 1136.38 447.033 1136.38 447.902C1136.38 448.777 1136.49 449.539 1136.71 450.189C1136.93 450.838 1137.24 451.338 1137.63 451.688C1138.03 452.038 1138.49 452.213 1139.01 452.213C1139.52 452.213 1139.97 452.038 1140.37 451.688C1140.76 451.338 1141.07 450.838 1141.28 450.189C1141.5 449.539 1141.61 448.777 1141.61 447.902C1141.61 447.033 1141.5 446.277 1141.28 445.634C1141.07 444.984 1140.76 444.484 1140.37 444.134C1139.97 443.784 1139.52 443.609 1139.01 443.609ZM1166.02 450.788H1150.65V449.364H1166.02V450.788ZM1164.09 445.278H1154.38V446.721H1164.42V448.089H1152.62V443.965H1162.31V442.541H1152.58V441.135H1164.09V445.278ZM1164.11 457.349H1152.69V452.157H1164.11V457.349ZM1154.45 455.906H1162.34V453.581H1154.45V455.906ZM1182.57 450.957H1167.25V449.533H1182.57V450.957ZM1180.84 457.199H1169.19V452.325H1170.98V455.756H1180.84V457.199ZM1174.9 441.323C1176.11 441.316 1177.16 441.447 1178.06 441.716C1178.97 441.985 1179.67 442.372 1180.16 442.878C1180.65 443.384 1180.9 443.984 1180.9 444.678C1180.9 445.378 1180.65 445.984 1180.16 446.496C1179.67 447.002 1178.98 447.393 1178.07 447.667C1177.16 447.942 1176.11 448.083 1174.9 448.089C1173.69 448.083 1172.63 447.942 1171.73 447.667C1170.83 447.393 1170.13 447.002 1169.64 446.496C1169.15 445.984 1168.9 445.378 1168.9 444.678C1168.9 443.984 1169.15 443.384 1169.64 442.878C1170.13 442.372 1170.83 441.985 1171.73 441.716C1172.63 441.447 1173.69 441.316 1174.9 441.323ZM1174.9 442.747C1174.05 442.747 1173.31 442.825 1172.68 442.981C1172.06 443.138 1171.58 443.363 1171.24 443.656C1170.9 443.944 1170.73 444.284 1170.74 444.678C1170.73 445.084 1170.9 445.434 1171.23 445.727C1171.57 446.021 1172.05 446.246 1172.67 446.402C1173.3 446.552 1174.05 446.627 1174.9 446.627C1175.76 446.627 1176.5 446.552 1177.12 446.402C1177.75 446.246 1178.23 446.021 1178.56 445.727C1178.9 445.434 1179.06 445.084 1179.06 444.678C1179.06 444.284 1178.9 443.944 1178.56 443.656C1178.22 443.363 1177.74 443.138 1177.11 442.981C1176.49 442.825 1175.75 442.747 1174.9 442.747ZM1190.44 456.093C1190.2 456.093 1189.98 456.034 1189.77 455.915C1189.56 455.796 1189.4 455.634 1189.28 455.428C1189.16 455.222 1189.1 455 1189.11 454.762C1189.1 454.525 1189.16 454.303 1189.28 454.097C1189.4 453.891 1189.56 453.728 1189.77 453.609C1189.98 453.491 1190.2 453.431 1190.44 453.431C1190.67 453.431 1190.89 453.491 1191.1 453.609C1191.3 453.728 1191.47 453.891 1191.59 454.097C1191.71 454.303 1191.77 454.525 1191.77 454.762C1191.77 455 1191.71 455.222 1191.59 455.428C1191.47 455.634 1191.3 455.796 1191.1 455.915C1190.89 456.034 1190.67 456.093 1190.44 456.093ZM1195.5 456.093C1195.27 456.093 1195.04 456.034 1194.83 455.915C1194.62 455.796 1194.46 455.634 1194.34 455.428C1194.22 455.222 1194.17 455 1194.17 454.762C1194.17 454.525 1194.22 454.303 1194.34 454.097C1194.46 453.891 1194.62 453.728 1194.83 453.609C1195.04 453.491 1195.27 453.431 1195.5 453.431C1195.73 453.431 1195.95 453.491 1196.16 453.609C1196.36 453.728 1196.53 453.891 1196.65 454.097C1196.77 454.303 1196.83 454.525 1196.83 454.762C1196.83 455 1196.77 455.222 1196.65 455.428C1196.53 455.634 1196.36 455.796 1196.16 455.915C1195.95 456.034 1195.73 456.093 1195.5 456.093Z" fill="#BEC5CF"/>
<path d="M1464.88 456.149C1463.84 456.149 1462.94 455.878 1462.19 455.334C1461.45 454.79 1460.88 453.997 1460.49 452.953C1460.09 451.904 1459.9 450.645 1459.9 449.176C1459.9 447.721 1460.09 446.471 1460.49 445.428C1460.89 444.378 1461.46 443.578 1462.21 443.028C1462.96 442.478 1463.85 442.203 1464.88 442.203C1465.92 442.203 1466.81 442.478 1467.56 443.028C1468.31 443.578 1468.88 444.378 1469.27 445.428C1469.67 446.471 1469.87 447.721 1469.87 449.176C1469.87 450.645 1469.67 451.901 1469.28 452.944C1468.89 453.987 1468.31 454.784 1467.56 455.334C1466.81 455.878 1465.92 456.149 1464.88 456.149ZM1464.88 454.369C1465.5 454.369 1466.02 454.172 1466.46 453.778C1466.9 453.378 1467.23 452.791 1467.46 452.016C1467.69 451.241 1467.81 450.295 1467.81 449.176C1467.81 448.064 1467.69 447.118 1467.45 446.337C1467.22 445.549 1466.89 444.956 1466.45 444.556C1466.01 444.15 1465.49 443.947 1464.88 443.947C1464.28 443.947 1463.76 444.15 1463.32 444.556C1462.88 444.956 1462.54 445.549 1462.31 446.337C1462.08 447.118 1461.96 448.064 1461.96 449.176C1461.96 450.295 1462.08 451.241 1462.31 452.016C1462.54 452.791 1462.87 453.378 1463.31 453.778C1463.75 454.172 1464.27 454.369 1464.88 454.369Z" fill="#BEC5CF"/>
<path d="M1477.67 458.005H1475.57L1479.95 441.754H1482.04L1477.67 458.005ZM1493.43 455.962H1490.98V444.771H1490.9L1487.73 446.796V444.565L1491.09 442.391H1493.43V455.962ZM1501.74 456.149C1500.65 456.149 1499.71 455.878 1498.93 455.334C1498.16 454.784 1497.56 453.987 1497.14 452.944C1496.73 451.901 1496.52 450.645 1496.52 449.176C1496.52 447.714 1496.73 446.462 1497.14 445.418C1497.56 444.368 1498.16 443.572 1498.94 443.028C1499.72 442.478 1500.65 442.203 1501.74 442.203C1502.81 442.203 1503.74 442.478 1504.52 443.028C1505.31 443.572 1505.91 444.368 1506.32 445.418C1506.74 446.462 1506.95 447.714 1506.95 449.176C1506.95 450.645 1506.74 451.901 1506.32 452.944C1505.91 453.987 1505.31 454.784 1504.53 455.334C1503.75 455.878 1502.82 456.149 1501.74 456.149ZM1501.74 454.106C1502.31 454.106 1502.8 453.922 1503.21 453.553C1503.62 453.178 1503.94 452.625 1504.15 451.894C1504.38 451.157 1504.49 450.251 1504.49 449.176C1504.49 448.114 1504.38 447.215 1504.15 446.477C1503.94 445.734 1503.62 445.174 1503.21 444.8C1502.79 444.418 1502.3 444.228 1501.74 444.228C1501.17 444.228 1500.68 444.418 1500.26 444.8C1499.85 445.174 1499.53 445.734 1499.31 446.477C1499.09 447.215 1498.98 448.114 1498.98 449.176C1498.98 450.251 1499.09 451.157 1499.31 451.894C1499.53 452.625 1499.85 453.178 1500.25 453.553C1500.67 453.922 1501.16 454.106 1501.74 454.106Z" fill="#667277"/>
<g clip-path="url(#clip1_0_1)">
<rect width="501.611" height="5.11848" transform="translate(1058.44 162.844)" fill="#E5E8EB"/>
<rect width="199.621" height="5.11848" transform="translate(1058.44 162.844)" fill="#FF765E"/>
</g>
<g clip-path="url(#clip2_0_1)">
<rect width="499.052" height="112.607" transform="translate(1061 40)" fill="white"/>
<g clip-path="url(#clip3_0_1)">
<path d="M1115.64 65.6019C1116.73 65.6019 1117.73 65.8427 1118.64 66.3242C1119.54 66.7987 1120.28 67.5882 1120.84 68.6929C1121.4 69.7976 1121.69 71.2457 1121.7 73.0372C1121.7 74.7863 1121.45 76.2911 1120.94 77.5515C1120.44 78.8049 1119.72 79.7609 1118.8 80.4194C1117.87 81.078 1116.78 81.4073 1115.51 81.4073C1114.54 81.4073 1113.67 81.2196 1112.9 80.8443C1112.13 80.469 1111.51 79.9485 1111.03 79.2829C1110.56 78.6173 1110.27 77.8596 1110.16 77.0098H1112.9C1113.04 77.6259 1113.34 78.1145 1113.79 78.4756C1114.25 78.8297 1114.83 79.0067 1115.51 79.0067C1116.25 79.0067 1116.88 78.7978 1117.41 78.38C1117.93 77.9622 1118.33 77.3603 1118.6 76.5743C1118.87 75.7812 1119.01 74.8359 1119.02 73.7383H1118.85C1118.46 74.4039 1117.92 74.9244 1117.21 75.2997C1116.52 75.675 1115.75 75.8627 1114.9 75.8627C1113.99 75.8627 1113.17 75.6502 1112.42 75.2253C1111.69 74.7934 1111.1 74.1986 1110.67 73.4409C1110.24 72.6832 1110.02 71.8263 1110.01 70.8704C1110.01 69.8719 1110.25 68.9726 1110.71 68.1724C1111.18 67.3723 1111.84 66.7456 1112.69 66.2924C1113.55 65.8321 1114.53 65.6019 1115.64 65.6019ZM1115.71 67.8325C1115.15 67.8325 1114.65 67.9635 1114.19 68.2255C1113.73 68.4875 1113.37 68.8451 1113.1 69.2983C1112.84 69.7445 1112.71 70.2331 1112.71 70.7642C1112.71 71.3236 1112.83 71.8299 1113.08 72.2831C1113.34 72.7363 1113.69 73.0974 1114.13 73.3665C1114.59 73.6285 1115.1 73.7595 1115.66 73.7595C1116.21 73.7595 1116.71 73.625 1117.17 73.3559C1117.64 73.0868 1118.01 72.7292 1118.28 72.2831C1118.55 71.8299 1118.68 71.3448 1118.68 70.8279C1118.68 70.2968 1118.55 69.8047 1118.3 69.3515C1118.04 68.8912 1117.69 68.523 1117.24 68.2468C1116.78 67.9706 1116.27 67.8325 1115.71 67.8325ZM1125.17 79.2829C1124.87 79.2829 1124.59 79.2085 1124.34 79.0598C1124.08 78.9111 1123.88 78.7093 1123.73 78.4544C1123.59 78.1995 1123.51 77.9233 1123.51 77.6259C1123.51 77.3356 1123.59 77.0665 1123.73 76.8186C1123.88 76.5637 1124.08 76.3619 1124.34 76.2132C1124.59 76.0645 1124.87 75.9901 1125.17 75.9901C1125.45 75.9901 1125.72 76.0645 1125.97 76.2132C1126.22 76.3619 1126.42 76.5637 1126.57 76.8186C1126.73 77.0665 1126.8 77.3356 1126.8 77.6259C1126.8 77.9233 1126.73 78.1995 1126.57 78.4544C1126.42 78.7093 1126.22 78.9111 1125.97 79.0598C1125.72 79.2085 1125.45 79.2829 1125.17 79.2829ZM1125.17 71.0403C1124.87 71.0403 1124.59 70.966 1124.34 70.8173C1124.08 70.6686 1123.88 70.4668 1123.73 70.2118C1123.59 69.9569 1123.51 69.6807 1123.51 69.3833C1123.51 69.093 1123.59 68.8239 1123.73 68.5761C1123.88 68.3211 1124.08 68.1193 1124.34 67.9706C1124.59 67.8219 1124.87 67.7476 1125.17 67.7476C1125.45 67.7476 1125.72 67.8219 1125.97 67.9706C1126.22 68.1193 1126.42 68.3211 1126.57 68.5761C1126.73 68.8239 1126.8 69.093 1126.8 69.3833C1126.8 69.6807 1126.73 69.9569 1126.57 70.2118C1126.42 70.4668 1126.22 70.6686 1125.97 70.8173C1125.72 70.966 1125.45 71.0403 1125.17 71.0403ZM1128.6 76.1176L1135.25 65.8144H1138.69V76.0538H1140.71V78.3269H1138.69V81.1948H1136.05V78.3269H1128.6V76.1176ZM1136.1 76.0538V68.9584H1135.93L1131.42 75.9476V76.0538H1136.1ZM1148.43 81.1948H1145.64V68.5123H1145.56L1141.97 70.8067V68.2787L1145.77 65.8144H1148.43V81.1948Z" fill="black"/>
<path opacity="0.35" d="M1491.71 69.431C1491.71 66.9575 1493.72 64.9523 1496.19 64.9523H1517.95C1520.42 64.9523 1522.42 66.9575 1522.42 69.431V75.8291C1522.42 78.3026 1520.42 80.3078 1517.95 80.3078H1496.19C1493.72 80.3078 1491.71 78.3026 1491.71 75.8291V69.431Z" stroke="black" stroke-width="1.27962"/>
<path opacity="0.4" d="M1524.34 70.7104V76.1109C1525.43 75.6535 1526.14 74.5895 1526.14 73.4107C1526.14 72.2318 1525.43 71.1678 1524.34 70.7104Z" fill="black"/>
<path d="M1493.63 69.4308C1493.63 68.0174 1494.78 66.8716 1496.19 66.8716H1517.95C1519.36 66.8716 1520.5 68.0174 1520.5 69.4308V75.8289C1520.5 77.2424 1519.36 78.3882 1517.95 78.3882H1496.19C1494.78 78.3882 1493.63 77.2424 1493.63 75.8289V69.4308Z" fill="black"/>
<path fill-rule="evenodd" clip-rule="evenodd" d="M1471.24 68.9033C1474.4 68.9035 1477.43 70.1414 1479.72 72.3612C1479.89 72.5326 1480.17 72.5305 1480.34 72.3564L1481.98 70.6602C1482.07 70.5719 1482.12 70.4523 1482.12 70.3279C1482.12 70.2034 1482.07 70.0844 1481.98 69.9972C1475.98 64.124 1466.5 64.124 1460.5 69.9972C1460.41 70.0844 1460.36 70.2033 1460.36 70.3278C1460.36 70.4522 1460.41 70.5718 1460.5 70.6602L1462.14 72.3564C1462.31 72.5307 1462.59 72.5329 1462.76 72.3612C1465.05 70.1413 1468.08 68.9033 1471.24 68.9033ZM1471.29 74.0242C1473.02 74.0241 1474.69 74.682 1475.98 75.8702C1476.15 76.0388 1476.43 76.0352 1476.6 75.8619L1478.24 74.1657C1478.33 74.0767 1478.37 73.956 1478.37 73.8306C1478.37 73.7052 1478.32 73.5855 1478.23 73.4984C1474.32 69.7816 1468.26 69.7816 1464.34 73.4984C1464.25 73.5855 1464.2 73.7052 1464.2 73.8307C1464.2 73.9562 1464.25 74.0769 1464.34 74.1657L1465.98 75.8619C1466.15 76.0352 1466.42 76.0388 1466.6 75.8702C1467.88 74.6828 1469.55 74.0249 1471.29 74.0242ZM1474.63 77.335C1474.63 77.4608 1474.58 77.582 1474.5 77.6702L1471.65 80.6008C1471.57 80.6869 1471.45 80.7354 1471.34 80.7354C1471.22 80.7354 1471.1 80.6869 1471.02 80.6008L1468.17 77.6702C1468.09 77.582 1468.04 77.4607 1468.04 77.3349C1468.04 77.2091 1468.1 77.09 1468.19 77.0057C1470.01 75.4371 1472.67 75.4371 1474.48 77.0057C1474.57 77.0901 1474.63 77.2092 1474.63 77.335Z" fill="black"/>
<path d="M1439.89 69.4311C1439.89 68.7244 1440.46 68.1515 1441.17 68.1515H1442.45C1443.16 68.1515 1443.73 68.7244 1443.73 69.4311V79.6681C1443.73 80.3748 1443.16 80.9477 1442.45 80.9477H1441.17C1440.46 80.9477 1439.89 80.3748 1439.89 79.6681V69.4311Z" fill="black"/>
<path d="M1446.29 66.8719C1446.29 66.1652 1446.86 65.5923 1447.57 65.5923H1448.85C1449.55 65.5923 1450.13 66.1652 1450.13 66.8719V79.6681C1450.13 80.3748 1449.55 80.9477 1448.85 80.9477H1447.57C1446.86 80.9477 1446.29 80.3748 1446.29 79.6681V66.8719Z" fill="black"/>
<path d="M1433.49 73.9098C1433.49 73.2031 1434.06 72.6302 1434.77 72.6302H1436.05C1436.76 72.6302 1437.33 73.2031 1437.33 73.9098V79.6681C1437.33 80.3748 1436.76 80.9477 1436.05 80.9477H1434.77C1434.06 80.9477 1433.49 80.3748 1433.49 79.6681V73.9098Z" fill="black"/>
<path d="M1427.09 77.1089C1427.09 76.4022 1427.67 75.8293 1428.37 75.8293H1429.65C1430.36 75.8293 1430.93 76.4022 1430.93 77.1089V79.6681C1430.93 80.3748 1430.36 80.9477 1429.65 80.9477H1428.37C1427.67 80.9477 1427.09 80.3748 1427.09 79.6681V77.1089Z" fill="black"/>
</g>
<path d="M1093.85 135.3C1093.47 135.3 1093.08 135.172 1092.83 134.788L1083.23 125.191C1082.59 124.551 1082.59 123.655 1083.23 123.015L1092.83 113.418C1093.47 112.779 1094.36 112.779 1095 113.418C1095.64 114.058 1095.64 114.954 1095 115.594L1086.3 124.167L1094.88 132.741C1095.52 133.38 1095.52 134.276 1094.88 134.916C1094.62 135.172 1094.24 135.3 1093.85 135.3Z" fill="#667277"/>
<path d="M1289.64 132.438H1287.5V123.301H1285.5V131.518H1283.42V114.703H1285.5V121.481H1287.5V114.364H1289.64V132.438ZM1277.14 125.98C1278.97 125.947 1280.69 125.767 1282.3 125.44L1282.52 127.38C1281.38 127.586 1280.28 127.733 1279.24 127.82C1278.2 127.9 1277.16 127.939 1276.1 127.939H1274.9V116.443H1277.14V125.98ZM1296.94 114.943C1297.84 114.943 1298.66 115.12 1299.39 115.473C1300.11 115.82 1300.68 116.303 1301.1 116.923C1301.52 117.543 1301.73 118.242 1301.74 119.022C1301.73 119.809 1301.52 120.512 1301.1 121.132C1300.68 121.751 1300.11 122.235 1299.39 122.581C1298.66 122.928 1297.84 123.101 1296.94 123.101C1296.02 123.101 1295.2 122.928 1294.47 122.581C1293.74 122.235 1293.17 121.751 1292.76 121.132C1292.35 120.512 1292.14 119.809 1292.14 119.022C1292.14 118.242 1292.35 117.543 1292.76 116.923C1293.17 116.303 1293.75 115.82 1294.48 115.473C1295.21 115.12 1296.03 114.943 1296.94 114.943ZM1296.94 116.783C1296.43 116.783 1295.98 116.876 1295.58 117.063C1295.18 117.243 1294.86 117.503 1294.64 117.842C1294.41 118.176 1294.3 118.569 1294.3 119.022C1294.3 119.482 1294.41 119.885 1294.64 120.232C1294.86 120.572 1295.18 120.835 1295.58 121.022C1295.98 121.208 1296.43 121.301 1296.94 121.301C1297.44 121.301 1297.9 121.208 1298.3 121.022C1298.7 120.835 1299.01 120.572 1299.24 120.232C1299.46 119.885 1299.58 119.482 1299.58 119.022C1299.58 118.569 1299.46 118.176 1299.24 117.842C1299.01 117.503 1298.7 117.243 1298.3 117.063C1297.9 116.876 1297.44 116.783 1296.94 116.783ZM1306.87 123.501H1304.64V114.364H1306.87V123.501ZM1306.87 128.999H1297.1V130.459H1307.41V132.218H1294.92V127.36H1304.66V126.02H1294.88V124.281H1306.87V128.999ZM1316.01 118.062C1316.01 118.722 1316.18 119.355 1316.5 119.962C1316.83 120.568 1317.31 121.108 1317.96 121.581C1318.61 122.055 1319.39 122.414 1320.31 122.661L1319.31 124.361C1318.28 124.094 1317.4 123.677 1316.65 123.111C1315.91 122.538 1315.34 121.858 1314.92 121.072C1314.52 121.931 1313.93 122.674 1313.17 123.301C1312.42 123.927 1311.52 124.394 1310.47 124.7L1309.41 122.941C1310.34 122.694 1311.13 122.324 1311.79 121.831C1312.45 121.338 1312.95 120.765 1313.28 120.112C1313.62 119.459 1313.79 118.776 1313.79 118.062V118.002H1310.01V116.243H1313.79V114.284H1316.03V116.243H1319.79V118.002H1316.01V118.062ZM1323.77 118.562H1326.29V120.402H1323.77V124.72H1321.55V114.364H1323.77V118.562ZM1324.03 127.34H1319.25C1319.39 127.846 1319.7 128.326 1320.19 128.779C1320.68 129.232 1321.32 129.629 1322.11 129.969C1322.9 130.302 1323.79 130.539 1324.79 130.679L1323.99 132.378C1322.59 132.178 1321.37 131.795 1320.33 131.229C1319.29 130.662 1318.5 129.962 1317.97 129.129C1317.44 129.949 1316.67 130.639 1315.63 131.199C1314.61 131.758 1313.4 132.138 1312.01 132.338L1311.19 130.659C1312.21 130.519 1313.1 130.285 1313.88 129.959C1314.67 129.632 1315.3 129.246 1315.78 128.799C1316.27 128.346 1316.58 127.86 1316.72 127.34H1311.93V125.56H1324.03V127.34ZM1342.3 132.438H1340.06V114.364H1342.3V132.438ZM1336.91 116.283C1336.91 119.155 1336.26 121.678 1334.96 123.851C1333.66 126.017 1331.5 127.813 1328.49 129.239L1327.33 127.46C1329.65 126.353 1331.4 125.03 1332.58 123.491C1333.76 121.945 1334.45 120.128 1334.65 118.042H1328.25V116.283H1336.91Z" fill="#667277"/>
</g>
<path d="M1228.6 364.834H1225.21V358.655H1219.45V356.106H1225.21V337.782H1228.6V364.834ZM1206.46 351.757C1210.13 351.737 1213.25 351.687 1215.83 351.607C1218.41 351.527 1220.92 351.358 1223.35 351.098L1223.56 353.557C1221.29 353.867 1218.77 354.107 1216 354.277V364.024H1212.64V354.427C1210.78 354.487 1208.57 354.517 1206.01 354.517L1205.59 351.757H1206.46ZM1221.4 349.208H1207.87V339.161H1221.4V349.208ZM1211.17 346.569H1218.13V341.83H1211.17V346.569ZM1253.49 348.158H1257.66V350.948H1253.49V364.894H1250.19V337.752H1253.49V348.158ZM1245.81 350.348H1236.69V355.746C1238.99 355.726 1241.02 355.656 1242.78 355.536C1244.54 355.406 1246.32 355.186 1248.12 354.877L1248.42 357.576C1246.44 357.936 1244.47 358.181 1242.5 358.31C1240.54 358.44 1238.24 358.505 1235.61 358.505H1233.39V347.679H1242.48V342.82H1233.33V340.121H1245.81V350.348ZM1280.93 342.85V343.18C1280.92 344.68 1280.89 345.984 1280.84 347.094C1280.8 348.193 1280.7 349.473 1280.55 350.933C1280.4 352.382 1280.17 353.957 1279.85 355.656L1276.49 355.296C1276.81 353.717 1277.05 352.227 1277.2 350.828C1277.35 349.418 1277.44 348.168 1277.48 347.079C1277.53 345.989 1277.56 344.71 1277.57 343.24V342.91H1261.38V340.241H1280.93V342.85ZM1283.51 361.355H1258.8V358.625H1267.91V349.208H1271.21V358.625H1283.51V361.355ZM1317.37 356.166H1306.57V364.864H1303.27V356.166H1292.6V353.527H1317.37V356.166ZM1298.89 342.16H1311.01V338.831H1314.37V350.708H1295.6V338.831H1298.89V342.16ZM1311.01 348.009V344.799H1298.89V348.009H1311.01ZM1343.91 352.567H1319.14V350.048H1343.91V352.567ZM1340.91 360.365H1325.38V362.254H1341.72V364.564H1322.05V358.206H1337.61V356.526H1322.02V354.187H1340.91V360.365ZM1340.85 344.47H1325.59V346.239H1341.33V348.518H1322.29V342.31H1337.52V340.661H1322.2V338.351H1340.85V344.47ZM1367.33 348.578H1371.08V351.338H1367.33V364.864H1363.98V337.752H1367.33V348.578ZM1353.84 340.601C1353.83 343.21 1353.66 345.554 1353.33 347.634C1353.01 349.703 1352.42 351.692 1351.56 353.602C1350.7 355.501 1349.49 357.296 1347.93 358.985L1345.32 357.096C1346.56 355.776 1347.56 354.412 1348.3 353.002C1349.06 351.582 1349.62 350.093 1349.98 348.533C1350.34 346.974 1350.57 345.239 1350.66 343.33H1346.4V340.601H1353.84ZM1361.34 340.601C1361.33 343.38 1361.18 345.894 1360.89 348.143C1360.61 350.383 1360.05 352.577 1359.22 354.727C1358.39 356.866 1357.21 358.865 1355.67 360.725L1353 358.895C1354.24 357.416 1355.22 355.861 1355.95 354.232C1356.69 352.592 1357.23 350.898 1357.56 349.148C1357.89 347.389 1358.09 345.449 1358.17 343.33H1354.74V340.601H1361.34ZM1397.03 361.565H1372.25V358.835H1377.98V351.982C1376.88 351.343 1376.03 350.548 1375.42 349.598C1374.82 348.648 1374.52 347.579 1374.53 346.389C1374.52 344.979 1374.95 343.73 1375.81 342.64C1376.67 341.55 1377.86 340.711 1379.39 340.121C1380.92 339.521 1382.65 339.221 1384.58 339.221C1386.52 339.221 1388.25 339.521 1389.78 340.121C1391.32 340.711 1392.52 341.55 1393.38 342.64C1394.25 343.72 1394.69 344.969 1394.69 346.389C1394.69 347.549 1394.39 348.603 1393.8 349.553C1393.22 350.493 1392.4 351.278 1391.33 351.907V358.835H1397.03V361.565ZM1384.58 341.86C1383.23 341.86 1382.04 342.045 1381.01 342.415C1379.99 342.775 1379.2 343.295 1378.63 343.975C1378.07 344.655 1377.79 345.459 1377.8 346.389C1377.79 347.309 1378.07 348.109 1378.63 348.788C1379.2 349.468 1380 349.993 1381.03 350.363C1382.05 350.733 1383.24 350.918 1384.58 350.918C1385.92 350.918 1387.1 350.733 1388.13 350.363C1389.17 349.993 1389.98 349.468 1390.55 348.788C1391.13 348.109 1391.42 347.309 1391.42 346.389C1391.42 345.469 1391.13 344.67 1390.55 343.99C1389.98 343.3 1389.18 342.775 1388.15 342.415C1387.12 342.045 1385.93 341.86 1384.58 341.86ZM1387.94 358.835V353.182C1386.88 353.412 1385.76 353.527 1384.58 353.527C1383.45 353.527 1382.35 353.417 1381.28 353.197V358.835H1387.94ZM1403.38 355.536C1403.39 354.307 1403.51 353.312 1403.74 352.552C1403.97 351.792 1404.29 351.188 1404.7 350.738C1405.12 350.278 1405.68 349.828 1406.38 349.388C1407.09 348.938 1407.64 348.448 1408.03 347.919C1408.43 347.379 1408.63 346.759 1408.63 346.059C1408.63 345.509 1408.5 345.029 1408.24 344.62C1407.98 344.2 1407.63 343.875 1407.18 343.645C1406.74 343.415 1406.24 343.3 1405.69 343.3C1405.17 343.3 1404.69 343.41 1404.24 343.63C1403.79 343.85 1403.42 344.185 1403.13 344.635C1402.85 345.084 1402.69 345.629 1402.66 346.269H1398.91C1398.94 344.969 1399.26 343.865 1399.87 342.955C1400.48 342.035 1401.3 341.346 1402.32 340.886C1403.34 340.416 1404.47 340.181 1405.72 340.181C1407.06 340.181 1408.25 340.421 1409.28 340.901C1410.32 341.371 1411.12 342.045 1411.69 342.925C1412.27 343.805 1412.56 344.829 1412.56 345.999C1412.56 347.159 1412.29 348.158 1411.74 348.998C1411.2 349.838 1410.41 350.568 1409.38 351.188C1408.78 351.547 1408.3 351.922 1407.94 352.312C1407.59 352.692 1407.33 353.137 1407.16 353.647C1406.99 354.157 1406.9 354.787 1406.89 355.536V355.806H1403.38V355.536ZM1405.24 362.434C1404.82 362.434 1404.43 362.329 1404.07 362.119C1403.71 361.909 1403.43 361.625 1403.22 361.265C1403.01 360.905 1402.9 360.515 1402.9 360.095C1402.9 359.685 1403.01 359.305 1403.22 358.955C1403.43 358.595 1403.71 358.31 1404.07 358.101C1404.43 357.891 1404.82 357.786 1405.24 357.786C1405.64 357.786 1406.02 357.891 1406.37 358.101C1406.73 358.31 1407.01 358.595 1407.22 358.955C1407.44 359.305 1407.55 359.685 1407.55 360.095C1407.55 360.515 1407.44 360.905 1407.22 361.265C1407.01 361.625 1406.73 361.909 1406.37 362.119C1406.02 362.329 1405.64 362.434 1405.24 362.434Z" fill="#2E3033"/>
<rect x="1086.59" y="1004.83" width="447.867" height="71.6588" rx="20.4739" fill="#E4E7ED"/>
<path d="M1289.7 1037.27H1292.38V1039.35H1289.7V1048.75H1287.14V1030.51H1289.7V1037.27ZM1284.6 1034.25H1278.6V1042.23C1280.04 1042.22 1281.32 1042.17 1282.44 1042.08C1283.57 1041.99 1284.7 1041.85 1285.84 1041.65L1286.12 1043.79C1284.9 1043.99 1283.7 1044.14 1282.51 1044.22C1281.33 1044.29 1279.98 1044.33 1278.44 1044.33H1277.6H1276.07V1032.19H1284.6V1034.25ZM1301.34 1030.85C1302.68 1030.85 1303.84 1031 1304.84 1031.28C1305.83 1031.57 1306.6 1031.98 1307.14 1032.51C1307.68 1033.04 1307.95 1033.68 1307.96 1034.41C1307.95 1035.14 1307.68 1035.77 1307.14 1036.3C1306.6 1036.83 1305.83 1037.24 1304.84 1037.52C1303.84 1037.8 1302.68 1037.94 1301.34 1037.93C1300 1037.94 1298.84 1037.8 1297.84 1037.52C1296.84 1037.23 1296.07 1036.83 1295.52 1036.3C1294.97 1035.77 1294.7 1035.14 1294.7 1034.41C1294.7 1033.68 1294.97 1033.04 1295.52 1032.51C1296.07 1031.98 1296.84 1031.57 1297.84 1031.28C1298.84 1031 1300 1030.85 1301.34 1030.85ZM1301.34 1032.83C1300.06 1032.83 1299.07 1032.97 1298.38 1033.24C1297.69 1033.51 1297.35 1033.9 1297.36 1034.41C1297.35 1034.92 1297.69 1035.3 1298.38 1035.56C1299.07 1035.82 1300.05 1035.95 1301.34 1035.95C1302.61 1035.95 1303.59 1035.82 1304.28 1035.56C1304.97 1035.3 1305.32 1034.92 1305.32 1034.41C1305.32 1033.9 1304.97 1033.51 1304.28 1033.24C1303.59 1032.97 1302.61 1032.83 1301.34 1032.83ZM1307.66 1048.51H1294.96V1042.31H1307.66V1048.51ZM1297.48 1046.47H1305.16V1044.33H1297.48V1046.47ZM1309.64 1041.03H1293.04V1038.99H1309.64V1041.03ZM1319.03 1031.43C1320.31 1031.44 1321.47 1031.66 1322.51 1032.1C1323.55 1032.53 1324.37 1033.15 1324.97 1033.94C1325.58 1034.73 1325.88 1035.64 1325.89 1036.67C1325.88 1037.71 1325.58 1038.63 1324.97 1039.43C1324.37 1040.22 1323.55 1040.84 1322.51 1041.27C1321.47 1041.7 1320.31 1041.92 1319.03 1041.91C1317.75 1041.92 1316.59 1041.7 1315.54 1041.27C1314.5 1040.84 1313.68 1040.22 1313.08 1039.43C1312.49 1038.63 1312.19 1037.71 1312.19 1036.67C1312.19 1035.64 1312.49 1034.73 1313.08 1033.94C1313.68 1033.15 1314.5 1032.53 1315.54 1032.1C1316.58 1031.66 1317.75 1031.44 1319.03 1031.43ZM1319.03 1033.51C1318.19 1033.5 1317.44 1033.63 1316.78 1033.89C1316.12 1034.14 1315.61 1034.51 1315.23 1034.99C1314.86 1035.47 1314.67 1036.03 1314.67 1036.67C1314.67 1037.32 1314.86 1037.88 1315.23 1038.36C1315.61 1038.83 1316.12 1039.2 1316.78 1039.45C1317.44 1039.7 1318.19 1039.83 1319.03 1039.83C1319.87 1039.83 1320.62 1039.7 1321.27 1039.45C1321.93 1039.2 1322.44 1038.83 1322.8 1038.36C1323.17 1037.88 1323.36 1037.32 1323.37 1036.67C1323.36 1036.03 1323.17 1035.47 1322.8 1034.99C1322.44 1034.51 1321.93 1034.14 1321.27 1033.89C1320.62 1033.63 1319.87 1033.5 1319.03 1033.51ZM1327.39 1046.49H1310.74V1044.43H1327.39V1046.49ZM1345.08 1046.69H1328.43V1044.59H1335.45V1041.85H1330.35V1035.73H1340.65V1033.73H1330.33V1031.69H1343.17V1037.73H1332.91V1039.77H1343.59V1041.85H1337.99V1044.59H1345.08V1046.69Z" fill="white"/>
<g clip-path="url(#clip4_0_1)">
<g opacity="0.7" filter="url(#filter0_f_0_1)">
<circle cx="1310.77" cy="274.307" r="36.4522" fill="#FFC9A0"/>
</g>
<g opacity="0.3">
<mask id="path-19-inside-1_0_1" fill="white">
<path fill-rule="evenodd" clip-rule="evenodd" d="M1360.57 296.142C1353.3 315.122 1332.63 323.067 1310.81 323.067C1288.51 323.067 1267.19 313.046 1260.43 293.717C1253.07 297.981 1245.56 298.584 1241.38 294.573C1235.58 288.997 1238.44 276.611 1247.77 266.91C1256.04 258.918 1261.14 255.196 1264.65 253.96C1273.21 237.011 1289.65 225.546 1310.81 225.546C1333.42 225.546 1351.12 239.815 1358.93 258.305C1362.34 260.033 1366.91 263.475 1373.43 269.451C1382.76 279.153 1385.62 291.538 1379.82 297.115C1375.61 301.162 1368 300.511 1360.57 296.142Z"/>
</mask>
<path fill-rule="evenodd" clip-rule="evenodd" d="M1360.57 296.142C1353.3 315.122 1332.63 323.067 1310.81 323.067C1288.51 323.067 1267.19 313.046 1260.43 293.717C1253.07 297.981 1245.56 298.584 1241.38 294.573C1235.58 288.997 1238.44 276.611 1247.77 266.91C1256.04 258.918 1261.14 255.196 1264.65 253.96C1273.21 237.011 1289.65 225.546 1310.81 225.546C1333.42 225.546 1351.12 239.815 1358.93 258.305C1362.34 260.033 1366.91 263.475 1373.43 269.451C1382.76 279.153 1385.62 291.538 1379.82 297.115C1375.61 301.162 1368 300.511 1360.57 296.142Z" fill="#FFE1D8"/>
<path d="M1360.57 296.142L1360.81 295.734L1360.33 295.451L1360.13 295.973L1360.57 296.142ZM1260.43 293.717L1260.88 293.561L1260.69 293.021L1260.19 293.308L1260.43 293.717ZM1241.38 294.573L1241.06 294.915L1241.38 294.573ZM1247.77 266.91L1247.44 266.57L1247.44 266.576L1247.43 266.582L1247.77 266.91ZM1264.65 253.96L1264.8 254.407L1264.98 254.344L1265.07 254.174L1264.65 253.96ZM1358.93 258.305L1358.49 258.489L1358.56 258.649L1358.72 258.727L1358.93 258.305ZM1373.43 269.451L1373.77 269.123L1373.76 269.112L1373.75 269.102L1373.43 269.451ZM1379.82 297.115L1380.15 297.456H1380.15L1379.82 297.115ZM1310.81 323.541C1332.7 323.541 1353.64 315.565 1361.01 296.312L1360.13 295.973C1352.96 314.678 1332.55 322.594 1310.81 322.594V323.541ZM1259.98 293.873C1266.83 313.469 1288.41 323.541 1310.81 323.541V322.594C1288.62 322.594 1267.54 312.622 1260.88 293.561L1259.98 293.873ZM1241.06 294.915C1243.26 297.034 1246.32 297.908 1249.74 297.721C1253.15 297.533 1256.94 296.287 1260.67 294.127L1260.19 293.308C1256.56 295.412 1252.91 296.598 1249.69 296.775C1246.46 296.953 1243.68 296.123 1241.71 294.232L1241.06 294.915ZM1247.43 266.582C1242.72 271.483 1239.62 277.079 1238.44 282.182C1237.27 287.274 1237.99 291.965 1241.06 294.915L1241.71 294.232C1238.98 291.605 1238.23 287.315 1239.37 282.395C1240.5 277.485 1243.5 272.038 1248.11 267.238L1247.43 266.582ZM1264.49 253.514C1260.87 254.788 1255.7 258.582 1247.44 266.57L1248.1 267.25C1256.37 259.253 1261.41 255.604 1264.8 254.407L1264.49 253.514ZM1310.81 225.072C1289.46 225.072 1272.86 236.649 1264.22 253.747L1265.07 254.174C1273.55 237.374 1289.84 226.019 1310.81 226.019V225.072ZM1359.37 258.121C1351.5 239.481 1333.64 225.072 1310.81 225.072V226.019C1333.21 226.019 1350.75 240.15 1358.49 258.489L1359.37 258.121ZM1373.75 269.102C1367.23 263.121 1362.62 259.641 1359.14 257.882L1358.72 258.727C1362.07 260.424 1366.6 263.829 1373.11 269.8L1373.75 269.102ZM1380.15 297.456C1383.21 294.507 1383.93 289.815 1382.76 284.723C1381.58 279.62 1378.48 274.025 1373.77 269.123L1373.09 269.779C1377.7 274.579 1380.7 280.027 1381.84 284.936C1382.97 289.857 1382.22 294.146 1379.49 296.774L1380.15 297.456ZM1360.33 296.55C1364.09 298.763 1367.92 300.048 1371.37 300.257C1374.82 300.465 1377.92 299.595 1380.15 297.456L1379.49 296.774C1377.51 298.682 1374.69 299.509 1371.43 299.312C1368.16 299.114 1364.48 297.89 1360.81 295.734L1360.33 296.55Z" fill="#FFCAA4" mask="url(#path-19-inside-1_0_1)"/>
</g>
<g opacity="0.5" filter="url(#filter1_f_0_1)">
<circle cx="1310.6" cy="291.307" r="16.7285" fill="#FF5D3D"/>
</g>
<circle cx="1299.32" cy="257.48" r="3.46107" fill="#23201F"/>
<circle cx="1321.66" cy="257.48" r="3.46107" fill="#23201F"/>
<ellipse cx="1310.59" cy="270.487" rx="10.3832" ry="6.92213" fill="#FF765E"/>
<path d="M1307.13 269.91C1308.19 271.159 1311.06 272.909 1314.05 269.91" stroke="#DD5840" stroke-width="2.30738" stroke-linecap="round" stroke-linejoin="round"/>
</g>
</g>
<path d="M263.74 478.81H274.72V507.34H283.45V478.27H294.52V555.4H283.45V517.42H274.72V554.86H263.74V478.81ZM257.08 548.83H240.43C236.47 548.83 234.94 548.38 232.42 545.5L228.28 540.82C226.03 538.21 225.4 536.95 225.4 532.54V480.97H236.83V531.91C236.83 532.99 237.1 533.62 237.91 534.52L240.97 537.94C241.78 538.75 242.41 539.02 243.22 539.02H257.08V548.83ZM393.008 536.14V526.6H454.028V536.14H429.818V536.95C429.818 539.11 430.628 540.55 433.058 541.36C440.348 543.88 447.188 546.13 455.648 548.2L452.138 557.2C442.598 554.68 434.408 551.89 426.218 548.56C425.048 548.11 424.148 547.3 423.788 546.49C423.518 547.3 422.798 548.11 421.538 548.56C412.898 552.16 404.348 555.04 394.808 557.65L391.298 548.56C400.118 546.31 406.598 544.33 414.428 541.27C416.768 540.37 417.668 539.11 417.668 536.95V536.14H393.008ZM434.138 495.28H416.948V496.99C416.948 499.33 417.758 501.04 419.558 502.57C424.148 506.26 430.898 510.58 435.938 513.37L430.448 522.01C424.688 518.68 416.948 513.55 412.808 509.95C411.998 509.41 411.458 508.69 410.918 507.79C410.648 508.69 409.568 509.68 408.758 510.22C404.618 513.82 397.418 518.86 391.838 522.01L386.168 513.55C391.298 510.49 397.778 505.99 402.098 502.57C404.168 500.95 404.798 499.33 404.798 496.99V495.28H387.428V485.56H405.068V476.2H416.768V485.56H434.138V495.28ZM441.518 478.27H453.038V494.65H463.478V504.46H453.038V522.01H441.518V478.27ZM478.432 548.65L471.772 540.55C481.582 532.9 488.242 527.23 492.562 522.82C500.482 514.81 501.022 510.94 501.022 506.71V490.78H474.112V480.7H509.392C511.552 480.7 512.632 481.78 512.632 484.03V505.81C512.632 514.99 511.102 519.85 501.292 529.3C496.162 534.52 488.962 540.73 478.432 548.65ZM526.672 478.27H538.192V555.4H526.672V478.27Z" fill="#2E3033"/>
<path d="M362.844 478.27H374.364V515.71H362.844V478.27ZM367.704 542.35H326.034V545.32C326.034 545.68 326.124 546.04 326.394 546.22L326.664 546.58C326.844 546.85 327.114 546.85 327.384 546.85H375.894V556.48H323.604C320.544 556.48 319.644 555.85 318.024 554.14L316.674 552.7C314.964 550.81 314.514 549.91 314.514 546.58V536.68C314.514 534.79 315.954 533.71 318.024 533.71H361.944C362.664 533.71 363.024 533.35 363.024 532.81V529.57H314.514V520.03H371.034C373.104 520.03 374.364 521.02 374.364 523.09V535.06C374.364 539.29 372.024 542.35 367.704 542.35ZM328.734 477.37C341.964 477.37 349.434 486.01 349.434 495.55V497.26C349.434 506.62 341.964 515.44 328.734 515.44C315.144 515.44 308.034 506.62 308.034 497.26V495.55C308.034 486.01 315.144 477.37 328.734 477.37ZM338.184 497.26V495.55C338.184 491.41 334.944 487.09 328.734 487.09C322.434 487.09 319.284 491.41 319.284 495.55V497.26C319.284 501.4 322.434 505.72 328.734 505.72C334.944 505.72 338.184 501.4 338.184 497.26Z" fill="#FF765E"/>
<path d="M240.31 608.09H244.15V633.8H240.31V608.09ZM234.85 631.73H227.53C226.18 631.73 225.7 631.55 224.83 630.62L223.36 629C222.58 628.13 222.4 627.71 222.4 626.24V609.92C222.4 609.17 222.73 608.81 223.45 608.81H234.85C235.57 608.81 235.93 609.17 235.93 609.92V630.59C235.93 631.34 235.57 631.73 234.85 631.73ZM228.37 628.34H232.06V612.17H226.24V626C226.24 626.36 226.3 626.57 226.6 626.87L227.62 628.01C227.89 628.28 228.1 628.34 228.37 628.34ZM262.215 608.27H265.905V617.78H268.395V608.09H272.145V633.8H268.395V621.14H265.905V633.62H262.215V608.27ZM259.725 610.1V619.49C259.725 620.96 259.035 621.65 257.565 621.65H252.795V626.42C252.795 626.72 252.855 626.93 253.095 627.14L253.965 628.13C254.175 628.34 254.325 628.43 254.625 628.43H260.385V631.76H253.635C252.435 631.76 251.955 631.61 251.175 630.74L249.855 629.3C249.135 628.49 248.985 628.13 248.985 626.72V619.46C248.985 618.77 249.345 618.44 250.035 618.44H255.465C255.735 618.44 255.885 618.29 255.885 617.96V612.29H249.075V608.99H258.615C259.335 608.99 259.725 609.35 259.725 610.1ZM295.489 614.6H281.659V615.29C281.659 615.38 281.689 615.44 281.749 615.5L281.899 615.65C281.989 615.71 282.049 615.71 282.109 615.71H298.369V618.59H280.879C279.949 618.59 279.619 618.41 279.109 617.84L278.659 617.36C278.089 616.79 277.969 616.49 277.969 615.44V612.92C277.969 612.29 278.419 611.96 279.109 611.96H293.689C293.929 611.96 294.019 611.84 294.019 611.63V610.91H277.999V608.03H296.629C297.319 608.03 297.739 608.39 297.739 609.08V612.17C297.739 613.58 296.899 614.6 295.489 614.6ZM299.569 622.49H276.499V619.67H299.569V622.49ZM296.149 630.11H281.419V630.86C281.419 630.98 281.449 631.07 281.509 631.13L281.599 631.22C281.689 631.31 281.779 631.31 281.869 631.31H298.999V634.13H280.369C279.499 634.13 279.229 633.92 278.719 633.47L278.359 633.05C277.849 632.51 277.729 632.24 277.729 631.28V628.52C277.729 627.86 278.149 627.62 278.839 627.62H294.349C294.529 627.62 294.619 627.44 294.619 627.23V626.48H277.759V623.66H297.259C297.949 623.66 298.339 624.05 298.339 624.74V627.95C298.339 629.15 297.559 630.11 296.149 630.11ZM332.412 610.16V620.33C332.412 622.94 332.352 623.51 331.092 626.42L327.552 625.7C328.452 623.48 328.542 622.58 328.542 620.39V612.44H311.832V609.02H331.332C332.082 609.02 332.412 609.41 332.412 610.16ZM319.002 618.47H322.872V629.54H333.612V632.9H310.542V629.54H319.002V618.47ZM356.267 608.09H360.107V627.14H356.267V608.09ZM345.227 630.83H360.677V634.16H344.057C342.827 634.16 342.377 633.92 341.777 633.26L340.997 632.45C340.337 631.73 340.157 631.34 340.157 629.99V624.86H343.997V629.48C343.997 629.75 344.057 629.99 344.207 630.14L344.657 630.65C344.807 630.77 344.927 630.83 345.227 630.83ZM350.657 622.49H342.587C341.327 622.49 340.757 622.25 340.127 621.56L339.017 620.36C338.387 619.7 338.147 619.22 338.147 617.99V609.89C338.147 609.14 338.507 608.78 339.227 608.78H350.657C351.377 608.78 351.737 609.14 351.737 609.89V621.38C351.737 622.1 351.377 622.49 350.657 622.49ZM343.427 619.13H347.837V612.14H342.047V617.63C342.047 617.96 342.077 618.02 342.227 618.23L342.827 618.89C343.007 619.07 343.157 619.13 343.427 619.13ZM372.562 616.46C376.642 616.46 378.922 619.28 378.922 623.12V625.82C378.922 629.69 376.642 632.48 372.562 632.48C368.482 632.48 366.202 629.69 366.202 625.82V623.12C366.202 619.28 368.482 616.46 372.562 616.46ZM382.462 608.09H386.332V618.83H389.812V622.13H386.332V633.8H382.462V608.09ZM380.302 614.81H364.792V611.42H370.642V608H374.452V611.42H380.302V614.81ZM375.052 625.82V623.12C375.052 621.08 374.122 619.79 372.562 619.79C371.002 619.79 370.072 621.08 370.072 623.12V625.82C370.072 627.86 371.002 629.18 372.562 629.18C374.122 629.18 375.052 627.86 375.052 625.82ZM398.666 630.53H414.536V633.86H397.496C396.326 633.86 395.936 633.62 395.276 632.96L394.616 632.3C393.926 631.61 393.776 631.22 393.776 629.9V625.19H397.646V629.42C397.646 629.66 397.676 629.78 397.856 629.96L398.186 630.35C398.336 630.47 398.456 630.53 398.666 630.53ZM393.776 608.42H397.646V613.49C397.646 613.82 397.706 614 397.886 614.18L398.186 614.57C398.396 614.81 398.516 614.9 398.816 614.9H414.086V618.26H397.616C396.656 618.26 396.206 618.08 395.366 617.21L394.676 616.43C393.926 615.65 393.776 615.2 393.776 614.09V608.42ZM415.526 623.54H392.456V620.21H415.526V623.54ZM439.519 608.27H443.179V617.78H445.759V608.09H449.449V633.8H445.759V621.14H443.179V633.62H439.519V608.27ZM432.349 628.49H437.209V631.76H431.419C430.099 631.76 429.589 631.61 428.749 630.65L427.369 629.06C426.619 628.22 426.409 627.8 426.409 626.3V610.1C426.409 609.35 426.769 608.99 427.489 608.99H436.489V612.23H430.219V626.15C430.219 626.48 430.309 626.72 430.579 626.99L431.599 628.16C431.869 628.4 432.079 628.49 432.349 628.49ZM467.934 618.92C467.934 621.41 466.104 623.72 462.024 623.72H460.374C456.294 623.72 454.464 621.47 454.464 618.95C454.464 616.4 456.294 614.18 460.374 614.18H462.024C466.104 614.18 467.934 616.4 467.934 618.92ZM474.984 626.6V634.34H471.114V628.61H456.024V625.49H473.904C474.654 625.49 474.984 625.85 474.984 626.6ZM471.114 608.09H474.984V614.3H478.464V617.63H474.984V623.99H471.114V608.09ZM469.134 612.92H453.084V609.77H459.264V607.28H463.104V609.77H469.134V612.92ZM460.374 620.66H462.024C463.404 620.66 464.064 619.91 464.064 618.95C464.064 617.99 463.404 617.27 462.024 617.27H460.374C458.994 617.27 458.334 617.99 458.334 618.95C458.334 619.91 458.994 620.66 460.374 620.66ZM489.929 623.54H497.459C502.319 623.54 504.539 625.7 504.539 628.91C504.539 632.06 502.319 634.22 497.459 634.22H489.929C485.039 634.22 482.849 632.06 482.849 628.91C482.849 625.7 485.069 623.54 489.929 623.54ZM494.309 608.27H497.939V613.58H500.369V608.09H504.059V622.82H500.369V616.79H497.939V622.1H494.309V608.27ZM489.569 615.08C490.739 616.58 491.999 618.02 493.499 619.52L491.129 621.92C489.689 620.42 488.309 618.86 487.139 617.27C486.989 617.15 486.869 617.03 486.839 616.82C486.809 617.03 486.719 617.12 486.599 617.27C485.399 618.83 483.809 620.81 482.369 622.49L479.819 620.27C481.229 618.68 482.879 616.76 484.139 615.05C484.769 614.18 484.949 613.67 484.949 612.5V608.57H488.729V612.5C488.729 613.67 488.879 614.18 489.569 615.08ZM489.599 630.95H497.789C499.919 630.95 500.729 630.11 500.729 628.91C500.729 627.68 499.919 626.84 497.789 626.84H489.599C487.469 626.84 486.659 627.68 486.659 628.91C486.659 630.11 487.469 630.95 489.599 630.95ZM531.483 621.38H508.413V618.38H531.483V621.38ZM528.063 629.81H513.423V630.74C513.423 630.83 513.453 630.92 513.543 631.01L513.633 631.1C513.723 631.16 513.813 631.16 513.903 631.16H530.913V634.13H512.673C511.683 634.13 511.323 633.92 510.813 633.35L510.363 632.87C509.763 632.27 509.643 631.97 509.643 630.86V628.1C509.643 627.47 510.063 627.14 510.753 627.14H526.143C526.323 627.14 526.443 627.05 526.443 626.87V625.79H509.673V622.82H529.173C529.863 622.82 530.253 623.21 530.253 623.9V627.65C530.253 628.85 529.473 629.81 528.063 629.81ZM516.333 608.03H523.593C528.423 608.03 530.343 609.86 530.343 612.53C530.343 615.2 528.423 617.03 523.593 617.03H516.333C511.533 617.03 509.613 615.2 509.613 612.53C509.613 609.86 511.533 608.03 516.333 608.03ZM516.183 614.06H523.773C525.783 614.06 526.323 613.34 526.323 612.53C526.323 611.75 525.783 611.03 523.773 611.03H516.183C514.113 611.03 513.603 611.75 513.603 612.53C513.603 613.34 514.113 614.06 516.183 614.06ZM550.226 608.33C554.696 608.33 557.306 611.15 557.306 614.27V615.17C557.306 618.29 554.696 621.11 550.226 621.11C545.666 621.11 543.056 618.29 543.056 615.17V614.27C543.056 611.15 545.666 608.33 550.226 608.33ZM553.466 615.14V614.3C553.466 612.86 552.296 611.54 550.226 611.54C548.126 611.54 546.926 612.86 546.926 614.3V615.14C546.926 616.58 548.126 617.9 550.226 617.9C552.296 617.9 553.466 616.58 553.466 615.14ZM560.876 608.09H564.716V633.8H560.876V608.09ZM552.506 633.59H548.726V626.27H541.916V622.91H559.196V626.27H552.506V633.59ZM583.771 619.46C583.771 622.22 581.821 624.47 577.861 624.47H576.301C572.371 624.47 570.421 622.28 570.421 619.49C570.421 616.7 572.371 614.51 576.301 614.51H577.861C581.821 614.51 583.771 616.7 583.771 619.46ZM587.071 608.09H590.941V615.26H594.421V618.59H590.941V627.14H587.071V608.09ZM577.561 630.89H591.421V634.16H576.331C575.161 634.16 574.681 633.92 574.051 633.26L573.241 632.36C572.551 631.64 572.401 631.25 572.401 629.9V626.09H576.241V629.45C576.241 629.72 576.301 629.96 576.481 630.11L576.991 630.71C577.141 630.83 577.321 630.89 577.561 630.89ZM585.091 613.16H569.071V610.01H575.221V607.46H579.061V610.01H585.091V613.16ZM576.271 621.38H577.891C579.271 621.38 579.901 620.45 579.901 619.49C579.901 618.56 579.271 617.66 577.891 617.66H576.271C574.891 617.66 574.291 618.56 574.291 619.49C574.291 620.45 574.891 621.38 576.271 621.38ZM236.74 658.02H231.37V659.82C231.37 660.87 231.52 661.5 232.09 662.07C233.38 663.36 235.69 665.4 237.46 666.75L235.36 669.42C233.47 668.04 231.1 665.88 229.87 664.5C229.69 664.26 229.48 664.02 229.39 663.75C229.3 664.02 229.06 664.26 228.91 664.5C227.65 665.88 225.22 668.1 223.39 669.54L221.17 666.93C223.03 665.43 225.22 663.45 226.57 662.04C227.17 661.41 227.32 660.87 227.32 659.82V658.02H221.89V654.78H236.74V658.02ZM229.27 676.83H244.72V680.16H228.1C226.87 680.16 226.42 679.92 225.82 679.26L225.04 678.45C224.38 677.73 224.2 677.34 224.2 675.99V670.86H228.04V675.48C228.04 675.75 228.1 675.99 228.25 676.14L228.7 676.65C228.85 676.77 228.97 676.83 229.27 676.83ZM240.31 654.09H244.15V673.14H240.31V654.09ZM268.815 664.56H254.175V667.05C254.175 667.23 254.175 667.35 254.325 667.44L254.595 667.74C254.745 667.89 254.835 667.89 254.955 667.89H271.635V671.19H262.725V675.72H272.295V679.08H249.225V675.72H258.855V671.19H253.455C252.465 671.19 252.135 670.98 251.595 670.41L251.085 669.9C250.515 669.3 250.365 668.97 250.365 667.89V662.34C250.365 661.68 250.785 661.35 251.475 661.35H266.745C267.075 661.35 267.195 661.2 267.195 660.9V658.08H250.395V654.78H269.925C270.615 654.78 271.005 655.14 271.005 655.83V662.4C271.005 663.87 270.315 664.56 268.815 664.56ZM300.548 654.09H304.418V659.46H307.898V662.79H304.418V668.55H300.548V654.09ZM291.158 669.51H297.908C302.768 669.51 304.988 671.67 304.988 674.88C304.988 678.06 302.768 680.31 297.908 680.31H291.158C286.268 680.31 284.078 678.06 284.078 674.88C284.078 671.67 286.298 669.51 291.158 669.51ZM290.858 677.01H298.238C300.398 677.01 301.208 676.14 301.208 674.88C301.208 673.62 300.398 672.78 298.238 672.78H290.858C288.698 672.78 287.888 673.62 287.888 674.88C287.888 676.14 288.698 677.01 290.858 677.01ZM293.078 659.94C294.758 661.83 296.378 663.39 298.358 665.1L296.018 667.68C293.948 665.94 292.478 664.38 290.858 662.52C290.588 662.25 290.408 662.07 290.318 661.77C290.288 662.07 290.078 662.25 289.838 662.52C288.248 664.5 286.628 666.03 284.588 667.92L282.128 665.34C284.228 663.45 285.938 661.77 287.528 659.91C288.158 659.16 288.338 658.74 288.338 657.72V654.27H292.268V657.72C292.268 658.74 292.418 659.25 293.078 659.94ZM327.882 654.09H331.722V659.13H335.202V662.4H331.722V668.04H327.882V654.09ZM324.942 663.96V667.26H314.952C313.722 667.26 313.182 667.02 312.552 666.33L311.472 665.22C310.842 664.53 310.632 664.02 310.632 662.85V655.56C310.632 654.81 310.992 654.42 311.712 654.42H323.892V657.69H314.532V662.49C314.532 662.82 314.592 662.91 314.742 663.09L315.372 663.78C315.522 663.93 315.642 663.96 315.912 663.96H324.942ZM315.912 676.8H327.912V672.78H315.912V676.8ZM313.512 669.48H330.282C331.182 669.48 331.722 670.02 331.722 670.89V678.54C331.722 679.44 331.182 680.13 330.282 680.13H313.512C312.642 680.13 312.072 679.44 312.072 678.54V670.89C312.072 670.02 312.642 669.48 313.512 669.48ZM354.785 667.2C356.465 669.84 358.445 672.51 360.545 675.09L357.905 677.46C355.955 675.06 353.945 672.54 352.355 669.99C352.235 669.81 352.085 669.51 352.055 669.27C351.995 669.54 351.875 669.81 351.755 669.99C350.135 672.63 348.335 675.21 346.385 677.73L343.625 675.42C345.605 672.81 347.495 670.08 349.325 667.14C349.835 666.27 350.075 665.04 350.075 663.78V654.63H354.005V663.78C354.005 665.07 354.215 666.27 354.785 667.2ZM363.005 654.09H366.845V679.8H363.005V666.24H357.875V662.82H363.005V654.09ZM376.24 654.81V663.21H382.06V654.81H385.93V676.59C385.93 677.34 385.57 677.73 384.85 677.73H377.17C375.97 677.73 375.49 677.58 374.68 676.71L373.27 675.15C372.55 674.34 372.4 673.98 372.4 672.57V654.81H376.24ZM390.31 654.09H394.15V679.8H390.31V654.09ZM378.22 674.34H382.06V666.6H376.24V672.24C376.24 672.51 376.33 672.72 376.57 672.96L377.53 674.04C377.74 674.28 377.92 674.34 378.22 674.34ZM399.135 675.21H422.325V678.57H399.135V675.21ZM413.715 661.26C416.385 663.63 419.475 666.03 422.355 668.1L420.105 670.98C417.015 668.64 413.925 666.09 411.285 663.72C411.045 663.48 410.865 663.3 410.745 663.03C410.625 663.3 410.505 663.48 410.265 663.72C407.535 666.18 404.595 668.7 401.565 670.95L399.255 668.1C402.105 666 405.075 663.66 407.715 661.23C408.555 660.51 408.825 659.85 408.825 658.68V654.69H412.695V658.68C412.695 659.85 412.815 660.51 413.715 661.26Z" fill="#585455"/>
<defs>
<filter id="filter0_f_0_1" x="1250.65" y="214.184" width="120.247" height="120.245" filterUnits="userSpaceOnUse" color-interpolation-filters="sRGB">
<feFlood flood-opacity="0" result="BackgroundImageFix"/>
<feBlend mode="normal" in="SourceGraphic" in2="BackgroundImageFix" result="shape"/>
<feGaussianBlur stdDeviation="11.8351" result="effect1_foregroundBlur_0_1"/>
</filter>
<filter id="filter1_f_0_1" x="1267.91" y="248.621" width="85.373" height="85.373" filterUnits="userSpaceOnUse" color-interpolation-filters="sRGB">
<feFlood flood-opacity="0" result="BackgroundImageFix"/>
<feBlend mode="normal" in="SourceGraphic" in2="BackgroundImageFix" result="shape"/>
<feGaussianBlur stdDeviation="12.979" result="effect1_foregroundBlur_0_1"/>
</filter>
<linearGradient id="paint0_linear_0_1" x1="960" y1="0" x2="960" y2="1080" gradientUnits="userSpaceOnUse">
<stop stop-color="#FF765E" stop-opacity="0.1"/>
<stop offset="1" stop-color="#FF765E" stop-opacity="0.25"/>
</linearGradient>
<clipPath id="clip0_0_1">
<rect width="499" height="1080" fill="white" transform="translate(1061 40)"/>
</clipPath>
<clipPath id="clip1_0_1">
<rect width="501.611" height="5.11848" fill="white" transform="translate(1058.44 162.844)"/>
</clipPath>
<clipPath id="clip2_0_1">
<rect width="499.052" height="112.607" fill="white" transform="translate(1061 40)"/>
</clipPath>
<clipPath id="clip3_0_1">
<rect width="499.052" height="60.1422" fill="white" transform="translate(1061 40)"/>
</clipPath>
<clipPath id="clip4_0_1">
<rect x="1272.14" y="231.943" width="76.7773" height="76.7773" rx="38.3886" fill="white"/>
</clipPath>
</defs>
</svg>
